<svg width="20" height="20" viewBox="0 0 20 20" fill="none" xmlns="http://www.w3.org/2000/svg">
<path d="M4.16667 14.1555C3.89396 14.1415 3.69879 14.1101 3.52886 14.0398C3.12048 13.8706 2.79603 13.5461 2.62687 13.1378C2.5 12.8315 2.5 12.4432 2.5 11.6666V5.99998C2.5 5.06656 2.5 4.59985 2.68166 4.24333C2.84144 3.92972 3.09641 3.67475 3.41002 3.51497C3.76653 3.33331 4.23325 3.33331 5.16667 3.33331H14.8333C15.7667 3.33331 16.2335 3.33331 16.59 3.51497C16.9036 3.67475 17.1586 3.92972 17.3183 4.24333C17.5 4.59985 17.5 5.06656 17.5 5.99998V11.6666C17.5 12.4432 17.5 12.8315 17.3732 13.1378C17.204 13.5461 16.8795 13.8706 16.4712 14.0398C16.3012 14.1101 16.1061 14.1415 15.8333 14.1555M7.61728 16.6666H12.3827C12.8531 16.6666 13.0883 16.6666 13.1973 16.5625C13.2918 16.4721 13.3419 16.3366 13.3322 16.1979C13.3209 16.038 13.1546 15.8518 12.8219 15.4794L10.4392 12.8117C10.2855 12.6396 10.2086 12.5535 10.12 12.5212C10.042 12.4929 9.958 12.4929 9.88 12.5212C9.79142 12.5535 9.7145 12.6396 9.56075 12.8117L7.17804 15.4794C6.84542 15.8518 6.6791 16.038 6.66787 16.1979C6.65812 16.3366 6.70827 16.4721 6.80277 16.5625C6.91167 16.6666 7.14688 16.6666 7.61728 16.6666Z" stroke="white" stroke-linecap="round" stroke-linejoin="round"/>
</svg>
