<svg width="36" height="36" viewBox="0 0 36 36" fill="none" xmlns="http://www.w3.org/2000/svg">
<path d="M17.5695 10.7247C18.1906 10.7093 18.6817 10.1933 18.6664 9.57219C18.651 8.95107 18.1351 8.45998 17.514 8.47534L17.5695 10.7247ZM9.45998 18.2895H10.585C10.585 18.2811 10.5849 18.2727 10.5847 18.2641L9.45998 18.2895ZM9.45998 21.765L9.51862 22.8885C10.1163 22.8573 10.585 22.3635 10.585 21.765H9.45998ZM9.45998 26.4L9.40132 27.5235C9.42086 27.5246 9.44042 27.525 9.45998 27.525V26.4ZM14.1297 27.525C14.7511 27.525 15.2547 27.0213 15.2547 26.4C15.2547 25.7787 14.7511 25.275 14.1297 25.275V27.525ZM16.4167 9.6C16.4167 10.2213 16.9205 10.725 17.5417 10.725C18.163 10.725 18.6667 10.2213 18.6667 9.6H16.4167ZM18.6667 6C18.6667 5.37868 18.163 4.875 17.5417 4.875C16.9205 4.875 16.4167 5.37868 16.4167 6H18.6667ZM17.5695 8.47534C16.9485 8.45998 16.4325 8.95107 16.4171 9.57219C16.4018 10.1933 16.8928 10.7093 17.514 10.7247L17.5695 8.47534ZM25.6236 18.2895L24.4988 18.2641C24.4986 18.2727 24.4986 18.2811 24.4986 18.2895H25.6236ZM25.6236 21.765H24.4986C24.4986 22.3635 24.9672 22.8573 25.565 22.8885L25.6236 21.765ZM25.6236 26.4V27.525C25.6431 27.525 25.6626 27.5246 25.6823 27.5235L25.6236 26.4ZM20.9538 25.275C20.3325 25.275 19.8288 25.7787 19.8288 26.4C19.8288 27.0213 20.3325 27.525 20.9538 27.525V25.275ZM15.2532 26.404C15.2555 25.7827 14.7536 25.2773 14.1323 25.275C13.511 25.2728 13.0055 25.7746 13.0033 26.396L15.2532 26.404ZM15.1272 28.95L15.9483 28.181L15.9464 28.179L15.1272 28.95ZM19.9535 28.95L19.1341 28.179L19.1323 28.181L19.9535 28.95ZM22.0773 26.396C22.075 25.7746 21.5695 25.2728 20.9482 25.275C20.327 25.2773 19.825 25.7827 19.8273 26.404L22.0773 26.396ZM14.1268 25.275C13.5055 25.275 13.0018 25.7787 13.0018 26.4C13.0018 27.0213 13.5055 27.525 14.1268 27.525V25.275ZM20.9538 27.525C21.5751 27.525 22.0788 27.0213 22.0788 26.4C22.0788 25.7787 21.5751 25.275 20.9538 25.275V27.525ZM17.514 8.47534C12.297 8.60433 8.21648 13.034 8.33526 18.3148L10.5847 18.2641C10.4926 14.17 13.646 10.8217 17.5695 10.7247L17.514 8.47534ZM8.33498 18.2895V21.765H10.585V18.2895H8.33498ZM9.40132 20.6415C7.57575 20.7369 6.1875 22.2732 6.1875 24.0825H8.4375C8.4375 23.4204 8.93766 22.9188 9.51862 22.8885L9.40132 20.6415ZM6.1875 24.0825C6.1875 25.8918 7.57575 27.4281 9.40132 27.5235L9.51862 25.2765C8.93764 25.2462 8.4375 24.7446 8.4375 24.0825H6.1875ZM9.45998 27.525H14.1297V25.275H9.45998V27.525ZM18.6667 9.6V6H16.4167V9.6H18.6667ZM17.514 10.7247C21.4375 10.8217 24.5909 14.17 24.4988 18.2641L26.7483 18.3148C26.8671 13.034 22.7865 8.60433 17.5695 8.47534L17.514 10.7247ZM24.4986 18.2895V21.765H26.7486V18.2895H24.4986ZM25.565 22.8885C26.1459 22.9188 26.646 23.4204 26.646 24.0825H28.896C28.896 22.2732 27.5077 20.7369 25.6823 20.6415L25.565 22.8885ZM26.646 24.0825C26.646 24.7446 26.1459 25.2462 25.565 25.2765L25.6823 27.5235C27.5077 27.4281 28.896 25.8918 28.896 24.0825H26.646ZM25.6236 25.275H20.9538V27.525H25.6236V25.275ZM13.0033 26.396C12.9989 27.6311 13.464 28.8243 14.3079 29.721L15.9464 28.179C15.5025 27.7072 15.251 27.0709 15.2532 26.404L13.0033 26.396ZM14.3061 29.7191C15.1465 30.6164 16.3137 31.1293 17.5402 31.1293V28.8793C16.9453 28.8793 16.3698 28.631 15.9483 28.181L14.3061 29.7191ZM17.5402 31.1293C18.7669 31.1293 19.9341 30.6164 20.7745 29.7191L19.1323 28.181C18.7108 28.631 18.1351 28.8793 17.5402 28.8793V31.1293ZM20.7726 29.721C21.6167 28.8243 22.0816 27.6311 22.0773 26.396L19.8273 26.404C19.8297 27.0709 19.5781 27.7072 19.1341 28.179L20.7726 29.721ZM14.1268 27.525H20.9538V25.275H14.1268V27.525Z" fill="#2B2D42"/>
</svg>
