<svg width="24" height="24" viewBox="0 0 24 24" fill="none" xmlns="http://www.w3.org/2000/svg">
<path d="M11.3122 11.1758C11.6014 11.4723 12.0763 11.4782 12.3727 11.1889C12.6692 10.8997 12.6751 10.4248 12.3858 10.1284L11.3122 11.1758ZM11.677 10.5051L11.2417 11.1158L11.2433 11.117L11.677 10.5051ZM7.157 7.2831L6.69687 7.87537C6.70501 7.88169 6.71327 7.88784 6.72166 7.89382L7.157 7.2831ZM5 8.1471L4.25824 8.03626C4.25275 8.07295 4.25 8.11 4.25 8.1471H5ZM5 14.8931H4.25C4.25 14.9302 4.25275 14.9672 4.25824 15.0039L5 14.8931ZM7.157 15.7571L7.61713 16.3494L7.61808 16.3486L7.157 15.7571ZM11.678 12.2331L11.2442 11.6213C11.235 11.6278 11.2259 11.6346 11.2169 11.6416L11.678 12.2331ZM12.3868 12.6099C12.6761 12.3134 12.6702 11.8386 12.3738 11.5493C12.0773 11.26 11.6025 11.2658 11.3132 11.5623L12.3868 12.6099ZM11.1 10.6521C11.1 11.0663 11.4358 11.4021 11.85 11.4021C12.2642 11.4021 12.6 11.0663 12.6 10.6521H11.1ZM11.85 8.1471L11.1083 8.03587C11.1028 8.07269 11.1 8.10987 11.1 8.1471H11.85ZM14.006 7.2831L13.5464 7.87576C13.5544 7.88196 13.5625 7.88799 13.5707 7.89387L14.006 7.2831ZM18.527 10.5051L18.0917 11.1159C18.1018 11.123 18.1121 11.13 18.1225 11.1367L18.527 10.5051ZM18.527 12.2331L18.1225 11.6015C18.103 11.614 18.0842 11.6273 18.0659 11.6416L18.527 12.2331ZM14.006 15.7571L14.4661 16.3494L14.4671 16.3486L14.006 15.7571ZM11.849 14.8931H11.099C11.099 14.9302 11.1018 14.9672 11.1072 15.0039L11.849 14.8931ZM12.599 12.0861C12.599 11.6719 12.2632 11.3361 11.849 11.3361C11.4348 11.3361 11.099 11.6719 11.099 12.0861H12.599ZM12.599 10.6521C12.599 10.2379 12.2632 9.9021 11.849 9.9021C11.4348 9.9021 11.099 10.2379 11.099 10.6521H12.599ZM11.099 12.0861C11.099 12.5003 11.4348 12.8361 11.849 12.8361C12.2632 12.8361 12.599 12.5003 12.599 12.0861H11.099ZM12.3858 10.1284C12.3014 10.0418 12.2093 9.96313 12.1107 9.89323L11.2433 11.117C11.268 11.1345 11.291 11.1542 11.3122 11.1758L12.3858 10.1284ZM12.1123 9.89438L7.59234 6.67238L6.72166 7.89382L11.2417 11.1158L12.1123 9.89438ZM7.61713 6.69083C7.02917 6.23405 6.24302 6.12346 5.55185 6.40031L6.10961 7.79276C6.30614 7.71403 6.52968 7.74548 6.69687 7.87537L7.61713 6.69083ZM5.55185 6.40031C4.86069 6.67716 4.36827 7.29989 4.25824 8.03626L5.74176 8.25794C5.77305 8.04855 5.91307 7.87148 6.10961 7.79276L5.55185 6.40031ZM4.25 8.1471V14.8931H5.75V8.1471H4.25ZM4.25824 15.0039C4.36827 15.7403 4.86069 16.363 5.55185 16.6399L6.10961 15.2474C5.91307 15.1687 5.77305 14.9916 5.74176 14.7823L4.25824 15.0039ZM5.55185 16.6399C6.24302 16.9167 7.02917 16.8061 7.61713 16.3494L6.69687 15.1648C6.52968 15.2947 6.30614 15.3262 6.10961 15.2474L5.55185 16.6399ZM7.61808 16.3486L12.1391 12.8246L11.2169 11.6416L6.69592 15.1656L7.61808 16.3486ZM12.1118 12.8449C12.2104 12.775 12.3024 12.6964 12.3868 12.6099L11.3132 11.5623C11.292 11.584 11.269 11.6037 11.2442 11.6213L12.1118 12.8449ZM12.6 10.6521V8.1471H11.1V10.6521H12.6ZM12.5917 8.25833C12.6231 8.0491 12.763 7.87219 12.9594 7.79349L12.4014 6.40113C11.7108 6.6779 11.2186 7.30006 11.1083 8.03587L12.5917 8.25833ZM12.9594 7.79349C13.1558 7.71479 13.3792 7.7461 13.5464 7.87576L14.4656 6.69045C13.8777 6.23447 13.0921 6.12436 12.4014 6.40113L12.9594 7.79349ZM13.5707 7.89387L18.0917 11.1159L18.9623 9.89434L14.4413 6.67234L13.5707 7.89387ZM18.1225 11.1367C18.2017 11.1874 18.2497 11.275 18.2497 11.3691H19.7497C19.7497 10.7637 19.4413 10.2 18.9315 9.87352L18.1225 11.1367ZM18.2497 11.3691C18.2497 11.4632 18.2017 11.5508 18.1225 11.6015L18.9315 12.8647C19.4413 12.5382 19.7497 11.9745 19.7497 11.3691H18.2497ZM18.0659 11.6416L13.5449 15.1656L14.4671 16.3486L18.9881 12.8246L18.0659 11.6416ZM13.5459 15.1648C13.3787 15.2947 13.1551 15.3262 12.9586 15.2474L12.4009 16.6399C13.092 16.9167 13.8782 16.8061 14.4661 16.3494L13.5459 15.1648ZM12.9586 15.2474C12.7621 15.1687 12.6221 14.9916 12.5908 14.7823L11.1072 15.0039C11.2173 15.7403 11.7097 16.363 12.4009 16.6399L12.9586 15.2474ZM12.599 14.8931V12.0861H11.099V14.8931H12.599ZM11.099 10.6521V12.0861H12.599V10.6521H11.099Z" fill="white"/>
</svg>
