<svg width="32" height="32" viewBox="0 0 32 32" fill="none" xmlns="http://www.w3.org/2000/svg">
<path fill-rule="evenodd" clip-rule="evenodd" d="M16.8185 1.6142C16.3371 1.23971 15.6629 1.23971 15.1815 1.6142L3.1814 10.9475C2.85662 11.2001 2.66666 11.5885 2.66666 12V26.6667C2.66666 28.1395 3.86056 29.3333 5.33332 29.3333H26.6667C28.1395 29.3333 29.3333 28.1395 29.3333 26.6667V12C29.3333 11.5885 29.1433 11.2001 28.8185 10.9475L16.8185 1.6142ZM21.3333 26.6667H26.6667V12.6521L16 4.35582L5.33332 12.6521V26.6667H10.6667V16C10.6667 15.2636 11.2636 14.6667 12 14.6667H20C20.7364 14.6667 21.3333 15.2636 21.3333 16V26.6667ZM13.3333 26.6667V17.3333H18.6667V26.6667H13.3333Z" fill="white"/>
</svg>
