<svg width="20" height="20" viewBox="0 0 20 20" fill="none" xmlns="http://www.w3.org/2000/svg">
<path d="M7.17657 15.536V11.112" stroke="white" stroke-width="1.5" stroke-linecap="round" stroke-linejoin="round"/>
<path d="M1.8259 10.136C1.80603 9.77336 1.86031 9.41048 1.98543 9.06952C2.11053 8.72848 2.30383 8.41664 2.55352 8.15288C2.80323 7.88913 3.10407 7.67901 3.43769 7.53545C3.77131 7.39188 4.13071 7.31787 4.49391 7.31787C4.85711 7.31787 5.21649 7.39188 5.55011 7.53545C5.88373 7.67901 6.18458 7.88913 6.43428 8.15288C6.68397 8.41664 6.87728 8.72848 7.00239 9.06952C7.1275 9.41048 7.18176 9.77336 7.1619 10.136V14.64C7.18176 15.0026 7.1275 15.3656 7.00239 15.7066C6.87728 16.0475 6.68397 16.3594 6.43428 16.6231C6.18458 16.8869 5.88373 17.097 5.55011 17.2406C5.21649 17.3841 4.85711 17.4582 4.49391 17.4582C4.13071 17.4582 3.77131 17.3841 3.43769 17.2406C3.10407 17.097 2.80323 16.8869 2.55352 16.6231C2.30383 16.3594 2.11053 16.0475 1.98543 15.7066C1.86031 15.3656 1.80603 15.0026 1.8259 14.64V10.136Z" stroke="white" stroke-width="1.5" stroke-linecap="round" stroke-linejoin="round"/>
<path d="M7.17662 14.64C7.17452 14.9919 7.24175 15.3408 7.37449 15.6668C7.50723 15.9927 7.70287 16.2894 7.95025 16.5398C8.19761 16.7901 8.49185 16.9893 8.81625 17.1259C9.14057 17.2625 9.48865 17.3339 9.84065 17.336H13.1367C13.9051 17.3354 14.6528 17.0856 15.2673 16.624C15.8818 16.1624 16.33 15.5139 16.5447 14.776L17.7447 10.712C17.8402 10.4419 17.8698 10.1528 17.8311 9.86889C17.7924 9.58497 17.6865 9.31441 17.5223 9.07969C17.3579 8.84497 17.1399 8.65281 16.8864 8.51929C16.6329 8.38577 16.3511 8.31473 16.0647 8.31201H11.6487V4.088C11.6497 3.93461 11.6205 3.78255 11.5628 3.64044C11.5051 3.49833 11.4199 3.36898 11.3122 3.25978C11.2045 3.15057 11.0763 3.06363 10.935 3.00396C10.7937 2.9443 10.642 2.91307 10.4887 2.91202C10.2363 2.91316 9.99113 2.99659 9.79049 3.14962C9.58977 3.30265 9.44449 3.51695 9.37665 3.76002L7.17662 11.088" stroke="white" stroke-width="1.5" stroke-linecap="round" stroke-linejoin="round"/>
</svg>
