<svg width="20" height="20" viewBox="0 0 20 20" fill="none" xmlns="http://www.w3.org/2000/svg">
<path fill-rule="evenodd" clip-rule="evenodd" d="M9.62748 2.55336C9.73829 2.6023 9.83249 2.68238 9.89862 2.78387C9.96476 2.88537 9.99997 3.00389 9.99998 3.12502V16.875C10.0001 16.9962 9.96492 17.1148 9.89884 17.2163C9.83275 17.3179 9.73857 17.398 9.62776 17.447C9.51695 17.496 9.39428 17.5118 9.27469 17.4923C9.15509 17.4729 9.04373 17.4191 8.95415 17.3375L4.54998 13.3334H2.29165C1.90487 13.3334 1.53394 13.1797 1.26045 12.9062C0.986958 12.6327 0.833313 12.2618 0.833313 11.875V8.12503C0.833313 7.32002 1.48665 6.66669 2.29165 6.66669H4.54998L8.95415 2.66252C9.04383 2.58119 9.1552 2.52766 9.27473 2.50842C9.39427 2.48919 9.51681 2.50509 9.62748 2.55419V2.55336ZM8.74998 4.53752L5.21248 7.75419C5.09732 7.85886 4.94726 7.9168 4.79165 7.91669H2.29165C2.23639 7.91669 2.1834 7.93864 2.14433 7.97771C2.10526 8.01678 2.08331 8.06977 2.08331 8.12503V11.875C2.08331 11.99 2.17665 12.0834 2.29165 12.0834H4.79165C4.94726 12.0832 5.09732 12.1412 5.21248 12.2459L8.74998 15.4625V4.53752Z" fill="white"/>
<path d="M15.5983 3.51835C15.7155 3.40131 15.8744 3.33557 16.04 3.33557C16.2056 3.33557 16.3645 3.40131 16.4816 3.51835C20.0616 7.09835 20.0616 12.9017 16.4816 16.4817C16.3632 16.5921 16.2065 16.6522 16.0445 16.6493C15.8826 16.6465 15.7281 16.5809 15.6136 16.4664C15.4991 16.3519 15.4335 16.1974 15.4307 16.0355C15.4278 15.8735 15.4879 15.7168 15.5983 15.5984C16.3336 14.8632 16.9168 13.9904 17.3147 13.0299C17.7126 12.0693 17.9175 11.0397 17.9175 10C17.9175 8.96029 17.7126 7.93075 17.3147 6.97018C16.9168 6.00961 16.3336 5.13683 15.5983 4.40169C15.4813 4.2845 15.4155 4.12565 15.4155 3.96002C15.4155 3.7944 15.4813 3.63554 15.5983 3.51835Z" fill="white"/>
<path d="M13.5358 6.46418C13.4777 6.40613 13.4088 6.36008 13.333 6.32866C13.2571 6.29724 13.1758 6.28107 13.0937 6.28107C13.0116 6.28107 12.9303 6.29724 12.8545 6.32866C12.7786 6.36008 12.7097 6.40613 12.6516 6.46418C12.5936 6.52224 12.5475 6.59116 12.5161 6.66701C12.4847 6.74287 12.4685 6.82417 12.4685 6.90627C12.4685 6.98837 12.4847 7.06967 12.5161 7.14552C12.5475 7.22137 12.5936 7.2903 12.6516 7.34835C12.9998 7.69657 13.2761 8.10997 13.4645 8.56494C13.653 9.01992 13.75 9.50756 13.75 10C13.75 10.4925 13.653 10.9801 13.4645 11.4351C13.2761 11.8901 12.9998 12.3035 12.6516 12.6517C12.5412 12.7702 12.4811 12.9269 12.484 13.0888C12.4868 13.2507 12.5524 13.4052 12.6669 13.5197C12.7814 13.6342 12.9359 13.6998 13.0979 13.7027C13.2598 13.7055 13.4165 13.6454 13.535 13.535C14.4726 12.5973 14.9993 11.3256 14.9993 9.9996C14.9993 8.67358 14.4734 7.40186 13.5358 6.46418Z" fill="white"/>
</svg>
