<svg width="32" height="32" viewBox="0 0 32 32" fill="none" xmlns="http://www.w3.org/2000/svg">
<path d="M16 20C18.2091 20 20 18.2091 20 16C20 13.7909 18.2091 12 16 12C13.7909 12 12 13.7909 12 16C12 18.2091 13.7909 20 16 20Z" stroke="#2B2D42" stroke-width="2"/>
<path d="M18.3539 2.86967C17.8637 2.66669 17.2425 2.66669 16 2.66669C14.7575 2.66669 14.1363 2.66669 13.6461 2.86967C12.9928 3.14033 12.4736 3.65946 12.203 4.31286C12.0794 4.61114 12.0311 4.95802 12.0121 5.46401C11.9843 6.20759 11.603 6.89587 10.9586 7.26793C10.3142 7.63997 9.52745 7.62607 8.86959 7.27837C8.42193 7.04175 8.09735 6.91018 7.77725 6.86805C7.07605 6.77573 6.36691 6.96574 5.80581 7.39629C5.38499 7.71919 5.07436 8.25722 4.45311 9.33326C3.83185 10.4093 3.52123 10.9473 3.45199 11.4732C3.35968 12.1744 3.54969 12.8836 3.98024 13.4447C4.17675 13.7008 4.45293 13.916 4.88159 14.1854C5.51173 14.5814 5.91719 15.2559 5.91715 16C5.91711 16.7442 5.51167 17.4186 4.88157 17.8144C4.45287 18.0839 4.17664 18.2992 3.98011 18.5554C3.54956 19.1164 3.35955 19.8255 3.45187 20.5267C3.52109 21.0526 3.83172 21.5907 4.45297 22.6667C5.07424 23.7427 5.38487 24.2808 5.80568 24.6036C6.36677 25.0342 7.07592 25.2242 7.77712 25.1319C8.09719 25.0898 8.42176 24.9582 8.86939 24.7216C9.52729 24.3739 10.3141 24.36 10.9585 24.732C11.603 25.1042 11.9843 25.7924 12.0121 26.5362C12.0311 27.042 12.0794 27.389 12.203 27.6872C12.4736 28.3406 12.9928 28.8598 13.6461 29.1304C14.1363 29.3334 14.7575 29.3334 16 29.3334C17.2425 29.3334 17.8637 29.3334 18.3539 29.1304C19.0072 28.8598 19.5264 28.3406 19.7969 27.6872C19.9205 27.389 19.9689 27.042 19.9879 26.536C20.0156 25.7924 20.3969 25.1042 21.0413 24.732C21.6857 24.3599 22.4725 24.3739 23.1305 24.7216C23.5781 24.9582 23.9027 25.0896 24.2227 25.1318C24.9239 25.2242 25.6331 25.0342 26.1941 24.6036C26.6149 24.2807 26.9256 23.7427 27.5468 22.6666C28.1681 21.5906 28.4788 21.0526 28.548 20.5267C28.6403 19.8255 28.4503 19.1163 28.0197 18.5552C27.8232 18.2991 27.5469 18.0838 27.1183 17.8144C26.4883 17.4186 26.0828 16.744 26.0828 15.9999C26.0828 15.2558 26.4883 14.5815 27.1183 14.1856C27.5471 13.9162 27.8233 13.701 28.0199 13.4447C28.4504 12.8837 28.6404 12.1745 28.5481 11.4733C28.4789 10.9474 28.1683 10.4094 27.5469 9.33335C26.9257 8.25731 26.6151 7.71929 26.1943 7.39638C25.6332 6.96583 24.924 6.77582 24.2228 6.86814C23.9028 6.91027 23.5783 7.04183 23.1305 7.27842C22.4727 7.62614 21.6859 7.64005 21.0415 7.26797C20.3969 6.8959 20.0156 6.20757 19.9879 5.46394C19.9689 4.95799 19.9205 4.61113 19.7969 4.31286C19.5264 3.65946 19.0072 3.14033 18.3539 2.86967Z" stroke="#2B2D42" stroke-width="2"/>
</svg>
